<?xml version="1.0" encoding="UTF-8" standalone="no"?>
<svg
   xmlns:dc="http://purl.org/dc/elements/1.1/"
   xmlns:cc="http://creativecommons.org/ns#"
   xmlns:rdf="http://www.w3.org/1999/02/22-rdf-syntax-ns#"
   xmlns:svg="http://www.w3.org/2000/svg"
   xmlns="http://www.w3.org/2000/svg"
   xmlns:sodipodi="http://sodipodi.sourceforge.net/DTD/sodipodi-0.dtd"
   xmlns:inkscape="http://www.inkscape.org/namespaces/inkscape"
   width="163.80615mm"
   height="22.148823mm"
   viewBox="0 0 163.80615 22.148823"
   version="1.1"
   id="svg8"
   sodipodi:docname="lani-5andar2.svg"
   inkscape:version="1.0 (4035a4fb49, 2020-05-01)">
  <defs
     id="defs2">
    <rect
       x="29.293156"
       y="34.017857"
       width="63.311012"
       height="18.331844"
       id="rect2853" />
    <rect
       x="25.702381"
       y="52.538692"
       width="146.27679"
       height="50.270832"
       id="rect12" />
    <linearGradient
       y2="0"
       x2="1"
       y1="0"
       x1="0"
       id="svg_3">
      <stop
         offset="0"
         stop-opacity="0.99609"
         stop-color="#2780c2"
         id="stop37" />
      <stop
         offset="1"
         stop-opacity="0.99609"
         stop-color="#03baa4"
         id="stop39" />
    </linearGradient>
  </defs>
  <sodipodi:namedview
     id="base"
     pagecolor="#ffffff"
     bordercolor="#666666"
     borderopacity="1.0"
     inkscape:pageopacity="0.0"
     inkscape:pageshadow="2"
     inkscape:zoom="1.4"
     inkscape:cx="335.94143"
     inkscape:cy="20.561878"
     inkscape:document-units="mm"
     inkscape:current-layer="layer1"
     inkscape:document-rotation="0"
     showgrid="false"
     inkscape:window-width="1920"
     inkscape:window-height="1027"
     inkscape:window-x="-8"
     inkscape:window-y="-8"
     inkscape:window-maximized="1"
     fit-margin-top="0"
     fit-margin-left="0"
     fit-margin-right="0"
     fit-margin-bottom="0" />
  <metadata
     id="metadata5">
    <rdf:RDF>
      <cc:Work
         rdf:about="">
        <dc:format>image/svg+xml</dc:format>
        <dc:type
           rdf:resource="http://purl.org/dc/dcmitype/StillImage" />
        <dc:title />
      </cc:Work>
    </rdf:RDF>
  </metadata>
  <g
     inkscape:label="Layer 1"
     inkscape:groupmode="layer"
     id="layer1"
     transform="translate(-25.071408,-74.997961)">
    <text
       xml:space="preserve"
       id="text10"
       style="font-style:normal;font-variant:normal;font-weight:500;font-stretch:normal;font-size:19.7556px;line-height:1.25;font-family:Exo;-inkscape-font-specification:'Exo Medium';white-space:pre;shape-inside:url(#rect12);fill:#000000;fill-opacity:1;stroke:none;" />
    <g
       style="font-style:normal;font-weight:normal;font-size:22.5778px;line-height:1.25;font-family:sans-serif;fill:#ffffff;fill-opacity:1;stroke:none;stroke-width:0.264583"
       id="text18"
       aria-label="Lani Systems">
      <path
         id="path1447"
         style="font-style:normal;font-variant:normal;font-weight:500;font-stretch:normal;font-size:22.5778px;font-family:Exo;-inkscape-font-specification:'Exo Medium';fill:#ffffff;fill-opacity:1;stroke-width:0.264583"
         d="m 56.024137,91.795845 q -1.061156,0 -1.873957,-0.316089 Q 53.359957,91.141089 52.930978,90.373444 52.502,89.583221 52.502,88.273708 V 75.156006 h 2.280358 v 12.779035 q 0,0.72249 0.248356,1.12889 0.248356,0.383823 0.654756,0.51929 0.406401,0.135466 0.880534,0.135466 h 5.75734 v 2.077158 z" />
      <path
         id="path1449"
         style="font-style:normal;font-variant:normal;font-weight:500;font-stretch:normal;font-size:22.5778px;font-family:Exo;-inkscape-font-specification:'Exo Medium';fill:#ffffff;fill-opacity:1;stroke-width:0.264583"
         d="m 66.888646,91.931312 q -1.332091,0 -2.212625,-0.790223 -0.857956,-0.812801 -0.857956,-2.235202 v -0.948268 q 0,-1.399824 0.948267,-2.280358 0.970846,-0.903112 2.912537,-0.903112 h 3.770492 v -1.264357 q 0,-0.699912 -0.248355,-1.174045 -0.225778,-0.496712 -0.857957,-0.745068 -0.632178,-0.248356 -1.873957,-0.248356 h -3.70276 v -1.33209 q 0.812801,-0.180622 1.896536,-0.316089 1.106312,-0.135467 2.573869,-0.158045 1.490135,0 2.483558,0.383823 1.016001,0.361245 1.512713,1.219201 0.496711,0.835379 0.496711,2.235202 v 8.42152 h -1.783646 l -0.383823,-1.33209 q -0.135466,0.09031 -0.564445,0.338667 -0.428978,0.225778 -1.106312,0.496711 -0.654756,0.270934 -1.444979,0.451556 -0.767645,0.180623 -1.557868,0.180623 z m 1.038579,-1.64818 q 0.338667,0.02258 0.790223,-0.06773 0.474133,-0.09031 0.925689,-0.2032 0.474134,-0.135467 0.857957,-0.270934 0.4064,-0.135467 0.654756,-0.225778 0.270934,-0.112889 0.293511,-0.135467 v -3.476981 l -3.160892,0.135467 q -1.174045,0.06773 -1.693335,0.587023 -0.496711,0.519289 -0.496711,1.354668 v 0.541867 q 0,0.654756 0.270933,1.061157 0.270934,0.383822 0.677334,0.541867 0.428979,0.158044 0.880535,0.158044 z" />
      <path
         id="path1451"
         style="font-style:normal;font-variant:normal;font-weight:500;font-stretch:normal;font-size:22.5778px;font-family:Exo;-inkscape-font-specification:'Exo Medium';fill:#ffffff;fill-opacity:1;stroke-width:0.264583"
         d="M 76.820055,91.795845 V 79.716722 h 1.806224 l 0.451556,1.309512 q 0.812801,-0.587023 1.919113,-1.038579 1.12889,-0.474134 2.325513,-0.474134 1.354668,0 2.167469,0.587023 0.835379,0.564445 1.196624,1.512713 0.361245,0.948268 0.361245,2.05458 v 8.128008 H 84.790018 V 83.93877 q 0,-0.722489 -0.293511,-1.241779 -0.270934,-0.541867 -0.767645,-0.835378 -0.496712,-0.293512 -1.219201,-0.293512 -0.677334,0 -1.264357,0.135467 -0.564445,0.135467 -1.083735,0.383823 -0.519289,0.225778 -1.083734,0.564445 v 9.144009 z" />
      <path
         id="path1453"
         style="font-style:normal;font-variant:normal;font-weight:500;font-stretch:normal;font-size:22.5778px;font-family:Exo;-inkscape-font-specification:'Exo Medium';fill:#ffffff;fill-opacity:1;stroke-width:0.264583"
         d="m 90.453519,77.68472 q -0.4064,0 -0.4064,-0.383823 v -1.896535 q 0,-0.406401 0.4064,-0.406401 h 1.670757 q 0.180623,0 0.270934,0.112889 0.09031,0.112889 0.09031,0.293512 v 1.896535 q 0,0.383823 -0.361245,0.383823 z M 90.13743,91.795845 V 79.716722 h 2.25778 v 12.079123 z" />
      <path
         id="path1455"
         style="font-style:normal;font-variant:normal;font-weight:500;font-stretch:normal;font-size:22.5778px;font-family:Exo;-inkscape-font-specification:'Exo Medium';fill:#ffffff;fill-opacity:1;stroke-width:0.264583"
         d="m 106.43543,91.931312 q -0.54187,0 -1.24178,-0.04516 -0.67734,-0.02258 -1.39983,-0.09031 -0.69991,-0.06773 -1.35466,-0.135467 -0.63218,-0.06773 -1.08374,-0.180622 v -1.761069 q 0.58702,0.04516 1.39983,0.09031 0.83537,0.04515 1.76106,0.06773 0.94827,0.02258 1.82881,0.02258 0.97084,0 1.71591,-0.180623 0.76764,-0.180622 1.19662,-0.677334 0.45156,-0.496711 0.45156,-1.399823 v -0.970846 q 0,-1.016001 -0.56445,-1.557868 -0.54186,-0.541867 -1.67075,-0.541867 h -1.69334 q -2.16747,0 -3.36409,-0.948268 -1.17405,-0.948267 -1.17405,-3.251203 v -0.903112 q 0,-2.393247 1.28694,-3.409248 1.30951,-1.038579 3.70276,-1.038579 0.79022,0 1.69333,0.09031 0.90311,0.06773 1.76107,0.180623 0.85796,0.112889 1.4224,0.225778 v 1.761068 q -1.016,-0.06773 -2.28036,-0.135467 -1.24178,-0.09031 -2.34809,-0.09031 -0.94826,0 -1.64818,0.225778 -0.67733,0.2032 -1.06115,0.745068 -0.36125,0.541867 -0.36125,1.53529 v 0.677334 q 0,1.219201 0.65476,1.693335 0.65475,0.474134 1.8288,0.474134 h 1.8288 q 1.4224,0 2.32552,0.519289 0.92569,0.51929 1.37724,1.422402 0.45156,0.903112 0.45156,2.05458 v 1.174045 q 0,1.761069 -0.72249,2.709336 -0.72249,0.948268 -1.94169,1.309513 -1.2192,0.338667 -2.77707,0.338667 z" />
      <path
         id="path1457"
         style="font-style:normal;font-variant:normal;font-weight:500;font-stretch:normal;font-size:22.5778px;font-family:Exo;-inkscape-font-specification:'Exo Medium';fill:#ffffff;fill-opacity:1;stroke-width:0.264583"
         d="m 117.88837,97.146784 1.46756,-5.350939 q -0.72249,-0.02258 -1.37725,-0.293511 -0.65476,-0.293512 -1.17405,-0.92569 -0.49671,-0.654756 -0.8128,-1.738491 l -2.70933,-9.121431 h 2.37067 l 2.4384,8.647297 q 0.2032,0.609601 0.45155,0.92569 0.27094,0.316089 0.51929,0.451556 0.27094,0.112889 0.47414,0.135467 0.2032,0.02258 0.24835,0.02258 l 2.82223,-10.182588 h 2.32551 l -4.15431,15.19486 -1.08374,2.235202 z" />
      <path
         id="path1459"
         style="font-style:normal;font-variant:normal;font-weight:500;font-stretch:normal;font-size:22.5778px;font-family:Exo;-inkscape-font-specification:'Exo Medium';fill:#ffffff;fill-opacity:1;stroke-width:0.264583"
         d="m 131.1366,91.931312 q -0.47413,0 -1.12889,-0.02258 -0.65476,-0.02258 -1.35467,-0.09031 -0.67733,-0.04516 -1.26435,-0.112889 -0.56445,-0.06773 -0.90312,-0.158045 v -1.354668 h 5.08001 q 0.65476,0 1.12889,-0.09031 0.47413,-0.112889 0.72249,-0.451556 0.27093,-0.338667 0.27093,-0.993423 v -0.496712 q 0,-0.677334 -0.45155,-1.061157 -0.45156,-0.383822 -1.49014,-0.383822 h -1.76107 q -1.06115,0 -1.89653,-0.270934 -0.8128,-0.293511 -1.28694,-0.970845 -0.45155,-0.677334 -0.45155,-1.828802 v -0.654756 q 0,-1.151468 0.42898,-1.896536 0.45155,-0.745067 1.4224,-1.106312 0.97084,-0.383822 2.57387,-0.383822 0.67733,0 1.49013,0.06773 0.83538,0.04516 1.6256,0.135467 0.79023,0.09031 1.26436,0.2032 v 1.354668 h -4.78649 q -0.99343,0 -1.53529,0.338667 -0.51929,0.338667 -0.51929,1.286935 v 0.451556 q 0,0.587023 0.24835,0.903112 0.24836,0.316089 0.69991,0.4064 0.47414,0.09031 1.10632,0.09031 h 1.80622 q 1.71591,0 2.59645,0.812801 0.88053,0.790223 0.88053,2.235203 v 0.925689 q 0,1.219202 -0.56444,1.896536 -0.56445,0.677334 -1.58045,0.948267 -0.99342,0.270934 -2.37067,0.270934 z" />
      <path
         id="path1461"
         style="font-style:normal;font-variant:normal;font-weight:500;font-stretch:normal;font-size:22.5778px;font-family:Exo;-inkscape-font-specification:'Exo Medium';fill:#ffffff;fill-opacity:1;stroke-width:0.264583"
         d="m 142.42444,91.795845 q -1.2192,0 -2.032,-0.383823 -0.79023,-0.4064 -1.17405,-1.286934 -0.36124,-0.880534 -0.33867,-2.348092 l 0.0903,-6.208895 h -1.91911 v -1.467557 l 1.96427,-0.383822 0.33867,-3.38667 h 1.78364 v 3.38667 h 3.27378 v 1.851379 h -3.27378 v 6.186318 q 0,0.699912 0.13547,1.12889 0.13547,0.428978 0.38382,0.654756 0.24836,0.225778 0.54187,0.338667 0.29351,0.09031 0.56445,0.112889 l 1.49013,0.135467 v 1.670757 z" />
      <path
         id="path1463"
         style="font-style:normal;font-variant:normal;font-weight:500;font-stretch:normal;font-size:22.5778px;font-family:Exo;-inkscape-font-specification:'Exo Medium';fill:#ffffff;fill-opacity:1;stroke-width:0.264583"
         d="m 151.43404,91.931312 q -1.91912,0 -3.07058,-0.564445 -1.12889,-0.564445 -1.6256,-1.896535 -0.47414,-1.354668 -0.47414,-3.725338 0,-2.415824 0.47414,-3.747914 0.49671,-1.354669 1.6256,-1.896536 1.12889,-0.541867 3.048,-0.541867 1.67076,0 2.68676,0.361245 1.03858,0.338667 1.51271,1.241779 0.49671,0.880534 0.49671,2.46098 0,1.106312 -0.45155,1.761069 -0.42898,0.654756 -1.24178,0.948267 -0.79023,0.293512 -1.89654,0.293512 h -3.99627 q 0.0226,1.309512 0.29351,2.099735 0.29351,0.767645 1.016,1.12889 0.74507,0.338667 2.16747,0.338667 h 3.7705 v 1.354668 q -0.97085,0.135467 -1.98685,0.248356 -1.016,0.135467 -2.34809,0.135467 z m -2.93512,-6.728185 h 3.81565 q 0.90311,0 1.33209,-0.338667 0.42898,-0.338667 0.42898,-1.241779 0,-0.903112 -0.27093,-1.422401 -0.24836,-0.51929 -0.83538,-0.745068 -0.58702,-0.225778 -1.55787,-0.225778 -1.10631,0 -1.76107,0.338667 -0.63218,0.338667 -0.90311,1.196624 -0.24836,0.857956 -0.24836,2.438402 z" />
      <path
         id="path1465"
         style="font-style:normal;font-variant:normal;font-weight:500;font-stretch:normal;font-size:22.5778px;font-family:Exo;-inkscape-font-specification:'Exo Medium';fill:#ffffff;fill-opacity:1;stroke-width:0.264583"
         d="M 158.84097,91.795845 V 79.716722 h 1.80623 l 0.45155,1.309512 q 0.88054,-0.609601 1.9417,-1.061157 1.06115,-0.451556 2.4384,-0.451556 1.12889,0 1.91911,0.496712 0.79022,0.496712 1.19662,1.264357 0.54187,-0.406401 1.30952,-0.812801 0.76764,-0.4064 1.64818,-0.677334 0.88053,-0.270934 1.69333,-0.270934 1.35467,0 2.19005,0.564445 0.85795,0.541868 1.2192,1.512713 0.38382,0.948268 0.38382,2.167469 v 8.037697 H 174.7809 V 83.93877 q 0,-0.722489 -0.29351,-1.241779 -0.27093,-0.541867 -0.79022,-0.835378 -0.49671,-0.293512 -1.2192,-0.293512 -0.90312,0 -1.85138,0.361245 -0.94827,0.338667 -1.73849,0.835379 0.0903,0.293511 0.13546,0.6096 0.0452,0.293512 0.0452,0.587023 v 7.834497 h -2.25778 V 83.93877 q 0,-0.722489 -0.29351,-1.241779 -0.27094,-0.541867 -0.76765,-0.835378 -0.49671,-0.293512 -1.2192,-0.293512 -0.67733,0 -1.26436,0.135467 -0.56444,0.135467 -1.08373,0.383823 -0.51929,0.225778 -1.08374,0.564445 v 9.144009 z" />
      <path
         id="path1467"
         style="font-style:normal;font-variant:normal;font-weight:500;font-stretch:normal;font-size:22.5778px;font-family:Exo;-inkscape-font-specification:'Exo Medium';fill:#ffffff;fill-opacity:1;stroke-width:0.264583"
         d="m 184.362,91.931312 q -0.47413,0 -1.12889,-0.02258 -0.65475,-0.02258 -1.35466,-0.09031 -0.67734,-0.04516 -1.26436,-0.112889 -0.56445,-0.06773 -0.90311,-0.158045 v -1.354668 h 5.08 q 0.65476,0 1.12889,-0.09031 0.47414,-0.112889 0.72249,-0.451556 0.27094,-0.338667 0.27094,-0.993423 v -0.496712 q 0,-0.677334 -0.45156,-1.061157 -0.45156,-0.383822 -1.49014,-0.383822 h -1.76106 q -1.06116,0 -1.89654,-0.270934 -0.8128,-0.293511 -1.28693,-0.970845 -0.45156,-0.677334 -0.45156,-1.828802 v -0.654756 q 0,-1.151468 0.42898,-1.896536 0.45155,-0.745067 1.4224,-1.106312 0.97085,-0.383822 2.57387,-0.383822 0.67733,0 1.49013,0.06773 0.83538,0.04516 1.62561,0.135467 0.79022,0.09031 1.26435,0.2032 v 1.354668 h -4.78649 q -0.99342,0 -1.53529,0.338667 -0.51929,0.338667 -0.51929,1.286935 v 0.451556 q 0,0.587023 0.24835,0.903112 0.24836,0.316089 0.69992,0.4064 0.47413,0.09031 1.10631,0.09031 h 1.80622 q 1.71592,0 2.59645,0.812801 0.88053,0.790223 0.88053,2.235203 v 0.925689 q 0,1.219202 -0.56444,1.896536 -0.56445,0.677334 -1.58045,0.948267 -0.99342,0.270934 -2.37067,0.270934 z" />
    </g>
    <path
       fill="url(#svg_3)"
       stroke-width="0"
       d="m 32.04933,91.660464 9.536279,-0.0018 3.5e-4,-9.535836 -3.468229,-3e-5 3.08e-4,6.068447 -6.06782,2.08e-4 -0.0012,3.468928 v 0 z m -6.977298,-6.977297 3.467418,-0.0018 2.08e-4,-6.067831 6.067459,2.06e-4 0.0012,-3.466968 -9.536908,2.08e-4 z"
       id="svg_8"
       stroke="#000000"
       style="fill:#176eb1;fill-opacity:0.996078" />
    <text
       xml:space="preserve"
       id="text2851"
       style="font-style:normal;font-weight:normal;font-size:10.5833px;line-height:1.25;font-family:sans-serif;white-space:pre;shape-inside:url(#rect2853);fill:#000000;fill-opacity:1;stroke:none;" />
  </g>
</svg>
