<svg id="wave1" style="transform:rotate(180deg); transition: 0.3s" viewBox="0 0 1440 100"
    version="1.1" xmlns="http://www.w3.org/2000/svg">
    <defs>
        <linearGradient id="sw-gradient-0" x1="0" x2="0" y1="1" y2="0">
            <stop stopColor="rgba(183, 175, 229, 1)" offset="0%"></stop>
            <stop stopColor="rgba(181.364, 175, 229, 1)" offset="100%"></stop>
        </linearGradient>
    </defs>
    <path style="transform:translate(0, 0px); opacity:1" fill="url(#sw-gradient-0)"
        d="M0,10L120,23.3C240,37,480,63,720,61.7C960,60,1200,30,1440,15C1680,0,1920,0,2160,3.3C2400,7,2640,13,2880,28.3C3120,43,3360,67,3600,66.7C3840,67,4080,43,4320,38.3C4560,33,4800,47,5040,46.7C5280,47,5520,33,5760,25C6000,17,6240,13,6480,10C6720,7,6960,3,7200,15C7440,27,7680,53,7920,63.3C8160,73,8400,67,8640,65C8880,63,9120,67,9360,56.7C9600,47,9840,23,10080,18.3C10320,13,10560,27,10800,38.3C11040,50,11280,60,11520,58.3C11760,57,12000,43,12240,45C12480,47,12720,63,12960,73.3C13200,83,13440,87,13680,78.3C13920,70,14160,50,14400,43.3C14640,37,14880,43,15120,41.7C15360,40,15600,30,15840,28.3C16080,27,16320,33,16560,40C16800,47,17040,53,17160,56.7L17280,60L17280,100L17160,100C17040,100,16800,100,16560,100C16320,100,16080,100,15840,100C15600,100,15360,100,15120,100C14880,100,14640,100,14400,100C14160,100,13920,100,13680,100C13440,100,13200,100,12960,100C12720,100,12480,100,12240,100C12000,100,11760,100,11520,100C11280,100,11040,100,10800,100C10560,100,10320,100,10080,100C9840,100,9600,100,9360,100C9120,100,8880,100,8640,100C8400,100,8160,100,7920,100C7680,100,7440,100,7200,100C6960,100,6720,100,6480,100C6240,100,6000,100,5760,100C5520,100,5280,100,5040,100C4800,100,4560,100,4320,100C4080,100,3840,100,3600,100C3360,100,3120,100,2880,100C2640,100,2400,100,2160,100C1920,100,1680,100,1440,100C1200,100,960,100,720,100C480,100,240,100,120,100L0,100Z"></path>
    <defs>
        <linearGradient id="sw-gradient-1" x1="0" x2="0" y1="1" y2="0">
            <stop stopColor="rgba(239, 233, 252, 1)" offset="0%"></stop>
            <stop stopColor="rgba(239, 233, 252, 1)" offset="100%"></stop>
        </linearGradient>
    </defs>
    <path style="transform:translate(0, 50px); opacity:0.9" fill="url(#sw-gradient-1)"
        d="M0,0L120,5C240,10,480,20,720,31.7C960,43,1200,57,1440,51.7C1680,47,1920,23,2160,13.3C2400,3,2640,7,2880,21.7C3120,37,3360,63,3600,71.7C3840,80,4080,70,4320,63.3C4560,57,4800,53,5040,48.3C5280,43,5520,37,5760,33.3C6000,30,6240,30,6480,26.7C6720,23,6960,17,7200,16.7C7440,17,7680,23,7920,30C8160,37,8400,43,8640,45C8880,47,9120,43,9360,43.3C9600,43,9840,47,10080,50C10320,53,10560,57,10800,60C11040,63,11280,67,11520,71.7C11760,77,12000,83,12240,75C12480,67,12720,43,12960,31.7C13200,20,13440,20,13680,30C13920,40,14160,60,14400,58.3C14640,57,14880,33,15120,33.3C15360,33,15600,57,15840,66.7C16080,77,16320,73,16560,65C16800,57,17040,43,17160,36.7L17280,30L17280,100L17160,100C17040,100,16800,100,16560,100C16320,100,16080,100,15840,100C15600,100,15360,100,15120,100C14880,100,14640,100,14400,100C14160,100,13920,100,13680,100C13440,100,13200,100,12960,100C12720,100,12480,100,12240,100C12000,100,11760,100,11520,100C11280,100,11040,100,10800,100C10560,100,10320,100,10080,100C9840,100,9600,100,9360,100C9120,100,8880,100,8640,100C8400,100,8160,100,7920,100C7680,100,7440,100,7200,100C6960,100,6720,100,6480,100C6240,100,6000,100,5760,100C5520,100,5280,100,5040,100C4800,100,4560,100,4320,100C4080,100,3840,100,3600,100C3360,100,3120,100,2880,100C2640,100,2400,100,2160,100C1920,100,1680,100,1440,100C1200,100,960,100,720,100C480,100,240,100,120,100L0,100Z"></path>
</svg>