<svg id="wave" style="transform:rotate(180deg); transition: 0.3s" viewBox="0 0 1440 100" version="1.1" xmlns="http://www.w3.org/2000/svg"><defs><linearGradient id="sw-gradient-0" x1="0" x2="0" y1="1" y2="0"><stop stop-color="rgba(183, 175, 229, 1)" offset="0%"></stop><stop stop-color="rgba(183, 175, 229, 1)" offset="100%"></stop></linearGradient></defs><path style="transform:translate(0, 0px); opacity:1" fill="url(#sw-gradient-0)" d="M0,20L34.3,28.3C68.6,37,137,53,206,63.3C274.3,73,343,77,411,76.7C480,77,549,73,617,68.3C685.7,63,754,57,823,50C891.4,43,960,37,1029,31.7C1097.1,27,1166,23,1234,18.3C1302.9,13,1371,7,1440,18.3C1508.6,30,1577,60,1646,61.7C1714.3,63,1783,37,1851,23.3C1920,10,1989,10,2057,20C2125.7,30,2194,50,2263,50C2331.4,50,2400,30,2469,23.3C2537.1,17,2606,23,2674,35C2742.9,47,2811,63,2880,60C2948.6,57,3017,33,3086,35C3154.3,37,3223,63,3291,68.3C3360,73,3429,57,3497,46.7C3565.7,37,3634,33,3703,40C3771.4,47,3840,63,3909,71.7C3977.1,80,4046,80,4114,75C4182.9,70,4251,60,4320,55C4388.6,50,4457,50,4526,46.7C4594.3,43,4663,37,4731,38.3C4800,40,4869,50,4903,55L4937.1,60L4937.1,100L4902.9,100C4868.6,100,4800,100,4731,100C4662.9,100,4594,100,4526,100C4457.1,100,4389,100,4320,100C4251.4,100,4183,100,4114,100C4045.7,100,3977,100,3909,100C3840,100,3771,100,3703,100C3634.3,100,3566,100,3497,100C3428.6,100,3360,100,3291,100C3222.9,100,3154,100,3086,100C3017.1,100,2949,100,2880,100C2811.4,100,2743,100,2674,100C2605.7,100,2537,100,2469,100C2400,100,2331,100,2263,100C2194.3,100,2126,100,2057,100C1988.6,100,1920,100,1851,100C1782.9,100,1714,100,1646,100C1577.1,100,1509,100,1440,100C1371.4,100,1303,100,1234,100C1165.7,100,1097,100,1029,100C960,100,891,100,823,100C754.3,100,686,100,617,100C548.6,100,480,100,411,100C342.9,100,274,100,206,100C137.1,100,69,100,34,100L0,100Z"></path></svg>